<svg height="512pt" viewBox="0 0 512.00007 512" width="512pt" xmlns="http://www.w3.org/2000/svg" xmlns:xlink="http://www.w3.org/1999/xlink"><linearGradient id="a" gradientTransform="matrix(426.664062 0 0 230.398438 42.667969 110.933594)" gradientUnits="userSpaceOnUse" x1=".12086" x2=".8791" y1="-.223815" y2="1.18037"><stop offset="0" stop-color="#d3dff2"/><stop offset=".172" stop-color="#d3dff2"/><stop offset=".2" stop-color="#d3dff2"/><stop offset=".2" stop-color="#dae2f2"/><stop offset=".201" stop-color="#ebeaf2"/><stop offset=".201" stop-color="#f6eff2"/><stop offset=".202" stop-color="#fdf2f2"/><stop offset=".205" stop-color="#fff3f2"/><stop offset=".252" stop-color="#fff3f2"/><stop offset=".26" stop-color="#fff3f2"/><stop offset=".26" stop-color="#d3dff2"/><stop offset=".397" stop-color="#d3dff2"/><stop offset=".42" stop-color="#d3dff2"/><stop offset=".42" stop-color="#dae2f2"/><stop offset=".421" stop-color="#ebeaf2"/><stop offset=".421" stop-color="#f6eff2"/><stop offset=".422" stop-color="#fdf2f2"/><stop offset=".425" stop-color="#fff3f2"/><stop offset=".489" stop-color="#fff3f2"/><stop offset=".5" stop-color="#fff3f2"/><stop offset=".5" stop-color="#f8f0f2"/><stop offset=".5" stop-color="#e7e8f2"/><stop offset=".5" stop-color="#dce3f2"/><stop offset=".5" stop-color="#d5e0f2"/><stop offset=".501" stop-color="#d3dff2"/><stop offset=".706" stop-color="#d3dff2"/><stop offset=".74" stop-color="#d3dff2"/><stop offset=".741" stop-color="#fff3f2"/><stop offset=".835" stop-color="#fff3f2"/><stop offset=".85" stop-color="#fff3f2"/><stop offset=".851" stop-color="#d3dff2"/></linearGradient><path d="m503.464844 26.367188v365.398437c.027344 9.792969-7.871094 17.765625-17.664063 17.835937h-459.601562c-9.792969-.070312-17.691407-8.042968-17.664063-17.835937v-365.398437c-.027344-9.792969 7.871094-17.761719 17.664063-17.832032h459.601562c9.792969.070313 17.691407 8.039063 17.664063 17.832032zm0 0" fill="#7fabfa"/><path d="m477.867188 26.367188v365.398437c.269531 9.539063-7.214844 17.503906-16.75 17.835937h-435.832032c-9.539062-.332031-17.019531-8.296874-16.75-17.835937v-365.398437c-.269531-9.539063 7.210938-17.503907 16.75-17.832032h435.832032c9.535156.328125 17.019531 8.292969 16.75 17.832032zm0 0" fill="#e3e7f2"/><path d="m469.332031 110.933594v213.332031c-.027343 9.414063-7.652343 17.039063-17.066406 17.066406h-392.53125c-9.425781 0-17.066406-7.640625-17.066406-17.066406v-213.332031zm0 0" fill="url(#a)"/><path d="m469.332031 59.734375v51.199219h-426.664062v-51.199219c.027343-9.414063 7.652343-17.039063 17.066406-17.066406h392.53125c9.414063.027343 17.039063 7.652343 17.066406 17.066406zm0 0" fill="#e3e7f2"/><path d="m341.332031 469.332031h-170.664062l25.597656-59.730469h119.46875zm0 0" fill="#7fabfa"/><path d="m373.417969 503.464844h-234.835938c-3.933593-.019532-7.339843-2.730469-8.25-6.554688-.914062-3.824218.910157-7.777344 4.410157-9.570312l35.925781-18.007813h170.664062l35.925781 18.007813c3.5 1.792968 5.324219 5.746094 4.410157 9.570312-.910157 3.824219-4.316407 6.535156-8.25 6.554688zm0 0" fill="#7fabfa"/><path d="m315.734375 469.332031h-145.066406l25.597656-59.730469h93.867187zm0 0" fill="#e3e7f2"/><path d="m347.820312 503.464844h-209.238281c-3.933593-.019532-7.339843-2.730469-8.25-6.554688-.914062-3.824218.910157-7.777344 4.410157-9.570312l35.925781-18.007813h145.066406l35.925781 18.007813c3.5 1.792968 5.320313 5.746094 4.410156 9.570312-.910156 3.824219-4.320312 6.535156-8.25 6.554688zm0 0" fill="#e3e7f2"/><path d="m25.285156 409.601562h25.597656c-9.535156-.332031-17.019531-8.296874-16.75-17.835937v-365.398437c-.269531-9.539063 7.214844-17.503907 16.75-17.832032h-25.597656c-9.539062.328125-17.019531 8.292969-16.75 17.832032v365.398437c-.269531 9.539063 7.210938 17.503906 16.75 17.835937zm0 0" fill="#fff"/><path d="m17.066406 26.359375v365.414063h-17.066406v-365.414063zm0 0" fill="#fff"/><g fill="#428dff"><path d="m93.867188 76.800781c0 4.710938-3.820313 8.53125-8.535157 8.53125-4.710937 0-8.53125-3.820312-8.53125-8.53125 0-4.714843 3.820313-8.535156 8.53125-8.535156 4.714844 0 8.535157 3.820313 8.535157 8.535156zm0 0"/><path d="m128 76.800781c0 4.710938-3.820312 8.53125-8.535156 8.53125-4.710938 0-8.53125-3.820312-8.53125-8.53125 0-4.714843 3.820312-8.535156 8.53125-8.535156 4.714844 0 8.535156 3.820313 8.535156 8.535156zm0 0"/><path d="m162.132812 76.800781c0 4.710938-3.820312 8.53125-8.53125 8.53125-4.714843 0-8.535156-3.820312-8.535156-8.53125 0-4.714843 3.820313-8.535156 8.535156-8.535156 4.710938 0 8.53125 3.820313 8.53125 8.535156zm0 0"/><path d="m8.535156 103.160156c2.257813-.035156 4.421875-.917968 6.058594-2.476562 3.296875-3.363282 3.296875-8.75 0-12.117188l-1.28125-1.023437c-.476562-.324219-.992188-.585938-1.535156-.777344-.488282-.238281-1.003906-.410156-1.539063-.503906-.5625-.09375-1.132812-.148438-1.703125-.167969-2.261718.03125-4.425781.914062-6.058594 2.472656-.769531.816406-1.378906 1.769532-1.792968 2.808594-1.292969 3.1875-.589844 6.835938 1.792968 9.320312.816407.765626 1.773438 1.375 2.8125 1.789063 1.027344.433594 2.128907.664063 3.246094.675781zm0 0"/><path d="m485.792969 0h-459.585938c-14.507812.0625-26.2304685 11.851562-26.207031 26.359375v34.132813c0 4.714843 3.820312 8.535156 8.535156 8.535156 4.710938 0 8.53125-3.820313 8.53125-8.535156v-34.132813c-.039062-5.085937 4.050782-9.246094 9.140625-9.292969h459.585938c5.089843.046875 9.179687 4.207032 9.140625 9.292969v365.414063c.039062 5.089843-4.050782 9.246093-9.140625 9.292968h-459.585938c-5.089843-.046875-9.179687-4.203125-9.140625-9.292968v-263.015626c0-4.710937-3.820312-8.53125-8.53125-8.53125-4.714844 0-8.535156 3.820313-8.535156 8.53125v263.015626c-.0234375 14.507812 11.699219 26.296874 26.207031 26.359374h157.125l-19.277343 44.960938-33.136719 16.574219c-7.078125 3.539062-10.796875 11.480469-8.980469 19.183593 1.816406 7.703126 8.695312 13.148438 16.609375 13.148438h234.90625c7.914063 0 14.792969-5.445312 16.609375-13.148438 1.816406-7.703124-1.902344-15.644531-8.980469-19.183593l-33.136719-16.574219-19.277343-44.960938h157.125c14.507812-.0625 26.230469-11.851562 26.207031-26.359374v-365.414063c.023438-14.507813-11.699219-26.296875-26.207031-26.359375zm-112.339844 494.933594h-234.90625l34.132813-17.066406h166.648437l34.277344 17.066406zm-45.066406-34.132813h-144.773438l18.277344-42.667969h108.21875zm0 0"/><path d="m477.867188 324.265625v-264.53125c0-14.140625-11.460938-25.601563-25.601563-25.601563h-392.53125c-14.140625 0-25.601563 11.460938-25.601563 25.601563v264.53125c0 14.140625 11.460938 25.601563 25.601563 25.601563h392.53125c14.140625 0 25.601563-11.460938 25.601563-25.601563zm-426.667969-264.53125c0-4.714844 3.820312-8.535156 8.535156-8.535156h392.53125c4.714844 0 8.535156 3.820312 8.535156 8.535156v42.664063h-409.601562zm0 264.53125v-204.800781h409.601562v204.800781c0 4.714844-3.820312 8.535156-8.535156 8.535156h-392.53125c-4.714844 0-8.535156-3.820312-8.535156-8.535156zm0 0"/><path d="m134.03125 147.566406c-.074219-.078125-.175781-.101562-.253906-.171875-.726563-.710937-1.578125-1.289062-2.507813-1.703125-.078125-.019531-.15625-.039062-.230469-.0625-.859374-.3125-1.761718-.484375-2.671874-.511718-.300782-.003907-.597657.011718-.894532.042968-.714844.046875-1.414062.183594-2.09375.410156-.289062.082032-.574218.183594-.851562.296876-.953125.40625-1.820313.984374-2.558594 1.707031l-34.136719 34.132812c-3.230469 3.351563-3.1875 8.671875.105469 11.964844 3.292969 3.289063 8.613281 3.335937 11.960938.101563l19.566406-19.574219v124.46875c0 4.710937 3.824218 8.53125 8.535156 8.53125s8.535156-3.820313 8.535156-8.53125v-124.46875l19.566406 19.566406c3.347657 3.234375 8.667969 3.1875 11.960938-.101563 3.292969-3.292968 3.335938-8.617187.105469-11.964843zm0 0"/><path d="m390.03125 147.566406c-.074219-.078125-.175781-.101562-.253906-.171875-.726563-.710937-1.578125-1.289062-2.507813-1.703125-.078125-.019531-.15625-.039062-.230469-.0625-.859374-.3125-1.761718-.484375-2.671874-.511718-.300782-.003907-.597657.011718-.894532.042968-.714844.046875-1.414062.183594-2.09375.410156-.289062.082032-.574218.183594-.851562.296876-.953125.40625-1.820313.984374-2.558594 1.707031l-34.136719 34.132812c-3.230469 3.351563-3.1875 8.671875.105469 11.964844 3.292969 3.289063 8.613281 3.335937 11.960938.101563l19.566406-19.574219v124.46875c0 4.710937 3.824218 8.53125 8.535156 8.53125s8.535156-3.820313 8.535156-8.53125v-124.46875l19.566406 19.566406c3.347657 3.234375 8.667969 3.1875 11.960938-.101563 3.292969-3.292968 3.335938-8.617187.105469-11.964843zm0 0"/><path d="m288.683594 227.488281c-6.398438-6.414062-15.089844-10.011719-24.148438-10-4.535156.023438-8.890625-1.773437-12.085937-4.992187-1.554688-1.546875-2.789063-3.378906-3.644531-5.402344-1.785157-4.261719-1.785157-9.0625 0-13.328125 1.734374-4.082031 4.980468-7.335937 9.0625-9.070313 2.09375-.871093 4.339843-1.320312 6.605468-1.324218h.121094c2.261719.003906 4.5.453125 6.585938 1.324218 4.09375 1.726563 7.347656 4.980469 9.082031 9.070313 1.183593 2.8125 3.777343 4.777344 6.804687 5.15625 3.023438.378906 6.023438-.882813 7.867188-3.316406 1.839844-2.429688 2.246094-5.660157 1.0625-8.46875-3.917969-9.9375-12.507813-17.289063-22.929688-19.628907v-13.90625c0-4.714843-3.820312-8.535156-8.53125-8.535156-4.714844 0-8.535156 3.820313-8.535156 8.535156v13.90625c-1.625.375-3.21875.867188-4.769531 1.46875-4.054688 1.703126-7.734375 4.183594-10.828125 7.304688-9.765625 9.761719-12.6875 24.445312-7.40625 37.199219 5.28125 12.757812 17.730468 21.074219 31.539062 21.074219 4.53125-.003907 8.878906 1.796874 12.082032 5 1.554687 1.550781 2.792968 3.386718 3.644531 5.410156 1.785156 4.261718 1.785156 9.0625 0 13.320312-1.734375 4.089844-4.988281 7.34375-9.082031 9.074219-4.257813 1.769531-9.050782 1.769531-13.3125 0-2.023438-.859375-3.863282-2.101563-5.417969-3.664063-1.554688-1.546874-2.792969-3.382812-3.644531-5.410156-1.183594-2.808594-3.777344-4.773437-6.804688-5.152344-3.023438-.382812-6.023438.882813-7.867188 3.3125-1.839843 2.433594-2.246093 5.660157-1.0625 8.472657 3.921876 9.933593 12.507813 17.285156 22.929688 19.625v14.125c0 4.710937 3.820312 8.53125 8.535156 8.53125 4.710938 0 8.53125-3.820313 8.53125-8.53125v-14.125c5.949219-1.324219 11.375-4.375 15.597656-8.769531 6.40625-6.402344 10.003907-15.085938 10.003907-24.140626 0-9.058593-3.597657-17.742187-10.003907-24.144531zm0 0"/><path d="m221.867188 366.933594c-4.714844 0-8.535157 3.820312-8.535157 8.53125 0 4.714844 3.820313 8.535156 8.535157 8.535156h68.265624c4.714844 0 8.535157-3.820312 8.535157-8.535156 0-4.710938-3.820313-8.53125-8.535157-8.53125zm0 0"/></g></svg>