<svg height="512pt" viewBox="0 0 512.02131 512" width="512pt" xmlns="http://www.w3.org/2000/svg"><path d="m503.484375 315.746094-26.195313-1.875-93.269531-6.65625h-256l-119.46875 8.53125.597657-1.875 25.003906-74.925782 110.933594-51.199218h221.867187l110.933594 51.199218zm0 0" fill="#7fabfa"/><path d="m477.886719 315.746094-119.46875-8.53125h-256l-93.269531 6.65625 25.003906-74.925782 110.933594-51.199218h196.265624l110.933594 51.199218 25.003906 74.925782zm0 0" fill="#a4c2f7"/><path d="m290.152344 426.679688 25.601562 34.132812h-25.601562l8.535156 42.667969-42.667969-34.132813-42.667969 34.132813 8.535157-42.667969h-25.601563l25.601563-34.132812zm0 0" fill="#e3e7f2"/><path d="m298.6875 392.546875v17.578125c0 13.824219-7.683594 25.089844-17.066406 25.089844h-51.203125c-9.386719 0-17.066407-11.265625-17.066407-25.089844v-17.578125zm0 0" fill="#7fabfa"/><path d="m286.996094 44.558594c-21.417969 11.347656-51.199219 2.902344-61.441406-.511719 1.492187-2.441406 2.289062-5.246094 2.304687-8.109375.007813-7.296875 2.960937-14.28125 8.191406-19.367188 11.207031-10.675781 28.816407-10.675781 40.023438 0 5.285156 5.054688 8.277343 12.054688 8.277343 19.367188.039063 3.070312.957032 6.058594 2.644532 8.621094zm0 0" fill="#7fabfa"/><path d="m359.101562 359.523438c-2.667968 3.335937-5.546874 6.5-8.617187 9.472656-20.480469 19.796875-63.148437 32.085937-94.464844 32.085937-4.25.019531-8.492187-.207031-12.714843-.683593-29.183594-2.644532-63.488282-14.164063-81.324219-31.402344-3.296875-2.984375-6.429688-6.148438-9.386719-9.472656-57.683594-72.023438-1.363281-208.214844 42.070312-276.820313 5.0625-8.625 10.980469-16.714844 17.664063-24.152344 2.816406-2.898437 6.316406-5.886719 9.386719-9.300781 1.449218-1.601562 2.734375-3.347656 3.839844-5.203125 7.089843 2.359375 14.371093 4.097656 21.761718 5.203125h.085938c6.066406.9375 12.214844 1.222656 18.34375.855469 7.402344-.296875 14.648437-2.1875 21.25-5.546875 3.78125 5.140625 8.132812 9.835937 12.96875 13.992187 6.6875 7.457031 12.632812 15.542969 17.75 24.152344 43.605468 68.605469 99.414062 204.796875 41.386718 276.820313zm0 0" fill="#7fabfa"/><path d="m273.085938 392.546875v17.578125c0 13.824219-7.679688 25.089844-17.066407 25.089844h-25.601562c-9.386719 0-17.066407-11.265625-17.066407-25.089844v-17.578125zm0 0" fill="#e3e7f2"/><path d="m333.5 359.523438c-2.667969 3.335937-5.546875 6.5-8.617188 9.472656-17.75 17.152344-52.308593 28.757812-81.578124 31.402344-29.183594-2.644532-63.488282-14.164063-81.324219-31.402344-3.296875-2.984375-6.429688-6.148438-9.386719-9.472656-57.683594-72.023438-1.363281-208.214844 42.070312-276.820313 5.0625-8.625 10.980469-16.714844 17.664063-24.152344 2.816406-2.898437 6.316406-5.886719 9.386719-9.300781 8.480468 1.367188 17.121094 1.367188 25.601562 0h.085938c4.875-.835938 9.59375-2.421875 13.992187-4.691406 1.226563 2.015625 2.6875 3.875 4.351563 5.546875 2.816406 3.070312 6.058594 5.714843 8.621094 8.445312 6.683593 7.457031 12.628906 15.542969 17.746093 24.152344 43.605469 68.605469 99.414063 204.796875 41.386719 276.820313zm0 0" fill="#d4e1f4"/><path d="m341.351562 264.546875c0 47.128906-38.203124 85.332031-85.332031 85.332031-47.128906 0-85.332031-38.203125-85.332031-85.332031s38.203125-85.332031 85.332031-85.332031c47.128907 0 85.332031 38.203125 85.332031 85.332031zm0 0" fill="#d4e1f4"/><path d="m290.152344 110.945312c0 18.851563-15.28125 34.136719-34.132813 34.136719-18.851562 0-34.132812-15.285156-34.132812-34.136719 0-18.847656 15.28125-34.132812 34.132812-34.132812 18.851563 0 34.132813 15.285156 34.132813 34.132812zm0 0" fill="#d4e1f4"/><path d="m34.75 313.871094 25.003906-74.925782 110.753906-51.113281c12.425782-36.863281 29.125-72.148437 49.757813-105.128906 5.058594-8.625 10.976563-16.714844 17.664063-24.152344 2.816406-2.898437 6.3125-5.886719 9.386718-9.300781-.667968-.09375-1.253906-.230469-1.914062-.332031.640625.101562 1.316406.171875 1.964844.265625 1.425781-1.582032 2.695312-3.296875 3.789062-5.121094 1.492188-2.441406 2.289062-5.246094 2.304688-8.105469.007812-7.296875 2.960937-14.28125 8.191406-19.371093 2.132812-2.007813 4.566406-3.671876 7.210937-4.933594-10.875-5.507813-24.039062-3.527344-32.8125 4.933594-5.230469 5.089843-8.183593 12.074218-8.191406 19.371093-.015625 2.859375-.8125 5.664063-2.304687 8.105469 1.144531.382812 2.621093.855469 4.214843 1.316406-1.621093-.480468-3.0625-.933594-4.214843-1.316406-1.105469 1.859375-2.390626 3.601562-3.839844 5.207031-3.070313 3.410157-6.570313 6.398438-9.386719 9.300781-6.683594 7.433594-12.601563 15.523438-17.664063 24.148438-20.628906 32.980469-37.332031 68.265625-49.757812 105.128906l-110.753906 51.097656-25.003906 74.925782-.597657 1.875 26.199219-1.867188zm207.308594-265.542969c-1.296875-.253906-2.507813-.503906-3.71875-.773437 1.191406.246093 2.429687.527343 3.71875.773437zm-6.75-1.476563c-1.210938-.296874-2.277344-.585937-3.363282-.851562 1.035157.257812 2.167969.554688 3.363282.851562zm0 0" fill="#fff"/><path d="m251.15625 44.046875c1.152344.382813 2.558594.851563 4.214844 1.3125-1.597656-.46875-3.074219-.929687-4.214844-1.3125zm0 0" fill="#fff"/><path d="m291.371094 50.105469-.101563-.113281.085938.113281zm0 0" fill="#fff"/><path d="m272.53125 49.183594h.171875c-.566406-.085938-1.144531-.144532-1.707031-.230469.527344.050781 1.007812.152344 1.535156.230469zm0 0" fill="#fff"/><path d="m267.660156 48.328125c-1.289062-.246094-2.5625-.511719-3.722656-.773437 1.210938.246093 2.425781.519531 3.722656.773437zm0 0" fill="#fff"/><path d="m260.910156 46.851562c-1.195312-.296874-2.296875-.59375-3.363281-.851562 1.082031.265625 2.148437.554688 3.363281.851562zm0 0" fill="#fff"/><path d="m30.578125 231.199219 100.71875-46.488281 10.214844-4.710938 7.148437 15.496094-10.203125 4.710937-100.730469 46.488281zm0 0" fill="#fff"/><g fill="#428dff"><path d="m99.101562 202.296875c-4.449218-1.570313-9.339843.703125-11 5.121094l-.402343 1.59375c-.09375.566406-.109375 1.136719-.050781 1.707031-.019532.542969.039062 1.085938.179687 1.613281.148437.550781.339844 1.09375.5625 1.621094 1.386719 3.183594 4.625 5.152344 8.089844 4.914063 2.824219-.148438 5.394531-1.679688 6.875-4.089844 1.480469-2.414063 1.679687-5.398438.53125-7.984375-.976563-2.046875-2.683594-3.652344-4.785157-4.496094zm0 0"/><path d="m256.019531 358.414062c51.839844 0 93.867188-42.027343 93.867188-93.867187s-42.027344-93.867187-93.867188-93.867187c-51.839843 0-93.867187 42.027343-93.867187 93.867187.0625 51.816406 42.050781 93.804687 93.867187 93.867187zm0-170.667968c42.414063 0 76.800781 34.386718 76.800781 76.800781s-34.386718 76.800781-76.800781 76.800781c-42.414062 0-76.800781-34.386718-76.800781-76.800781.050781-42.394531 34.40625-76.746094 76.800781-76.800781zm0 0"/><path d="m237.929688 265.570312c2.332031 2.332032 5.089843 4.195313 8.121093 5.488282 3.152344 1.335937 6.542969 2.027344 9.96875 2.023437 1.132813-.003906 2.25.222657 3.292969.664063 2.0625.875 3.703125 2.519531 4.574219 4.582031.886719 2.105469.886719 4.476563 0 6.578125-.875 2.0625-2.519531 3.703125-4.582031 4.574219-2.105469.878906-4.472657.878906-6.578126 0-1.019531-.4375-1.945312-1.0625-2.730468-1.84375-2.144532-2.214844-5.316406-3.105469-8.300782-2.324219-2.984374.78125-5.3125 3.109375-6.09375 6.09375s.109376 6.15625 2.328126 8.296875c2.332031 2.332031 5.089843 4.195313 8.121093 5.488281.472657.195313.964844.273438 1.433594.445313v10.109375c0 4.714844 3.820313 8.535156 8.535156 8.535156 4.710938 0 8.53125-3.820312 8.53125-8.535156v-10.109375c.472657-.171875.964844-.25 1.425781-.445313 6.144532-2.597656 11.039063-7.476562 13.65625-13.609375 2.695313-6.371093 2.695313-13.558593 0-19.925781-2.597656-6.144531-7.480468-11.039062-13.613281-13.652344-3.164062-1.332031-6.566406-2.007812-10-1.988281-1.132812 0-2.253906-.226563-3.292969-.667969-2.0625-.875-3.703124-2.519531-4.574218-4.582031-.886719-2.101563-.886719-4.476563 0-6.578125.875-2.0625 2.519531-3.703125 4.582031-4.574219 2.105469-.878906 4.472656-.878906 6.578125 0 1.019531.4375 1.945312 1.0625 2.730469 1.84375 3.347656 3.234375 8.671875 3.1875 11.964843-.105469 3.289063-3.292968 3.335938-8.613281.101563-11.960937-2.332031-2.332031-5.089844-4.195313-8.125-5.488281-.460937-.195313-.960937-.273438-1.433594-.441406v-10.113282c0-4.714844-3.820312-8.535156-8.53125-8.535156-4.714843 0-8.535156 3.820312-8.535156 8.535156v10.121094c-.46875.160156-.960937.238281-1.421875.433594-6.152344 2.609375-11.046875 7.503906-13.65625 13.652344-2.695312 6.371093-2.695312 13.558593 0 19.925781 1.308594 3.027343 3.179688 5.773437 5.523438 8.089843zm0 0"/><path d="m34.152344 426.679688c4.714844 0 8.535156-3.820313 8.535156-8.53125v-68.269532c0-4.710937-3.820312-8.53125-8.535156-8.53125-4.710938 0-8.53125 3.820313-8.53125 8.53125v68.269532c0 4.710937 3.820312 8.53125 8.53125 8.53125zm0 0"/><path d="m85.351562 477.878906v-136.53125c0-4.714844-3.820312-8.535156-8.53125-8.535156-4.714843 0-8.535156 3.820312-8.535156 8.535156v136.53125c0 4.714844 3.820313 8.535156 8.535156 8.535156 4.710938 0 8.53125-3.820312 8.53125-8.535156zm0 0"/><path d="m25.621094 486.414062c0 4.710938 3.820312 8.53125 8.53125 8.53125 4.714844 0 8.535156-3.820312 8.535156-8.53125v-25.601562c0-4.710938-3.820312-8.53125-8.535156-8.53125-4.710938 0-8.53125 3.820312-8.53125 8.53125zm0 0"/><path d="m110.953125 392.546875c4.710937 0 8.53125-3.820313 8.53125-8.53125v-34.136719c0-4.710937-3.820313-8.53125-8.53125-8.53125-4.714844 0-8.535156 3.820313-8.535156 8.53125v34.136719c0 4.710937 3.820312 8.53125 8.535156 8.53125zm0 0"/><path d="m102.417969 486.414062c0 4.710938 3.820312 8.53125 8.535156 8.53125 4.710937 0 8.53125-3.820312 8.53125-8.53125v-59.734374c0-4.710938-3.820313-8.53125-8.53125-8.53125-4.714844 0-8.535156 3.820312-8.535156 8.53125zm0 0"/><path d="m145.085938 401.082031v76.796875c0 4.714844 3.820312 8.535156 8.535156 8.535156 4.710937 0 8.53125-3.820312 8.53125-8.535156v-76.796875c0-4.714843-3.820313-8.535156-8.53125-8.535156-4.714844 0-8.535156 3.820313-8.535156 8.535156zm0 0"/><path d="m486.417969 349.878906c0-4.710937-3.820313-8.53125-8.53125-8.53125-4.714844 0-8.535157 3.820313-8.535157 8.53125v68.269532c0 4.710937 3.820313 8.53125 8.535157 8.53125 4.710937 0 8.53125-3.820313 8.53125-8.53125zm0 0"/><path d="m443.753906 477.878906v-136.53125c0-4.714844-3.820312-8.535156-8.535156-8.535156-4.710938 0-8.53125 3.820312-8.53125 8.535156v136.53125c0 4.714844 3.820312 8.535156 8.53125 8.535156 4.714844 0 8.535156-3.820312 8.535156-8.535156zm0 0"/><path d="m486.417969 486.414062v-25.601562c0-4.710938-3.820313-8.53125-8.53125-8.53125-4.714844 0-8.535157 3.820312-8.535157 8.53125v25.601562c0 4.710938 3.820313 8.53125 8.535157 8.53125 4.710937 0 8.53125-3.820312 8.53125-8.53125zm0 0"/><path d="m401.085938 392.546875c4.710937 0 8.535156-3.820313 8.535156-8.53125v-34.136719c0-4.710937-3.824219-8.53125-8.535156-8.53125-4.714844 0-8.535157 3.820313-8.535157 8.53125v34.136719c0 4.710937 3.820313 8.53125 8.535157 8.53125zm0 0"/><path d="m392.550781 486.414062c0 4.710938 3.820313 8.53125 8.535157 8.53125 4.710937 0 8.535156-3.820312 8.535156-8.53125v-59.734374c0-4.710938-3.824219-8.53125-8.535156-8.53125-4.714844 0-8.535157 3.820312-8.535157 8.53125zm0 0"/><path d="m358.417969 392.546875c-4.710938 0-8.53125 3.820313-8.53125 8.535156v76.796875c0 4.714844 3.820312 8.535156 8.53125 8.535156 4.714843 0 8.535156-3.820312 8.535156-8.535156v-76.796875c0-4.714843-3.820313-8.535156-8.535156-8.535156zm0 0"/><path d="m443.753906 34.148438c0-4.714844-3.820312-8.535157-8.535156-8.535157-4.710938 0-8.53125 3.820313-8.53125 8.535157v17.066406c0 4.710937 3.820312 8.53125 8.53125 8.53125 4.714844 0 8.535156-3.820313 8.535156-8.53125zm0 0"/><path d="m435.21875 110.945312c4.714844 0 8.535156-3.820312 8.535156-8.53125v-17.066406c0-4.714844-3.820312-8.535156-8.535156-8.535156-4.710938 0-8.53125 3.820312-8.53125 8.535156v17.066406c0 4.710938 3.820312 8.53125 8.53125 8.53125zm0 0"/><path d="m418.152344 59.746094h-17.066406c-4.714844 0-8.535157 3.820312-8.535157 8.535156 0 4.710938 3.820313 8.53125 8.535157 8.53125h17.066406c4.714844 0 8.535156-3.820312 8.535156-8.53125 0-4.714844-3.820312-8.535156-8.535156-8.535156zm0 0"/><path d="m452.285156 76.8125h17.066406c4.714844 0 8.535157-3.820312 8.535157-8.53125 0-4.714844-3.820313-8.535156-8.535157-8.535156h-17.066406c-4.710937 0-8.53125 3.820312-8.53125 8.535156 0 4.710938 3.820313 8.53125 8.53125 8.53125zm0 0"/><path d="m85.351562 85.347656c0-4.714844-3.820312-8.535156-8.53125-8.535156-4.714843 0-8.535156 3.820312-8.535156 8.535156v17.066406c0 4.710938 3.820313 8.53125 8.535156 8.53125 4.710938 0 8.53125-3.820312 8.53125-8.53125zm0 0"/><path d="m76.820312 162.148438c4.710938 0 8.53125-3.820313 8.53125-8.535157v-17.066406c0-4.710937-3.820312-8.53125-8.53125-8.53125-4.714843 0-8.535156 3.820313-8.535156 8.53125v17.066406c0 4.714844 3.820313 8.535157 8.535156 8.535157zm0 0"/><path d="m59.753906 110.945312h-17.066406c-4.714844 0-8.535156 3.824219-8.535156 8.535157 0 4.710937 3.820312 8.535156 8.535156 8.535156h17.066406c4.710938 0 8.53125-3.824219 8.53125-8.535156 0-4.710938-3.820312-8.535157-8.53125-8.535157zm0 0"/><path d="m119.484375 119.480469c0-4.710938-3.820313-8.535157-8.53125-8.535157h-17.066406c-4.714844 0-8.535157 3.824219-8.535157 8.535157 0 4.710937 3.820313 8.535156 8.535157 8.535156h17.066406c4.710937 0 8.53125-3.824219 8.53125-8.535156zm0 0"/><path d="m256.019531 153.613281c23.5625 0 42.667969-19.101562 42.667969-42.667969 0-23.5625-19.105469-42.664062-42.667969-42.664062-23.566406 0-42.667969 19.101562-42.667969 42.664062.027344 23.554688 19.113282 42.640626 42.667969 42.667969zm0-68.265625c14.136719 0 25.601563 11.460938 25.601563 25.597656 0 14.140626-11.464844 25.601563-25.601563 25.601563-14.140625 0-25.601562-11.460937-25.601562-25.601563 0-14.136718 11.460937-25.597656 25.601562-25.597656zm0 0"/><path d="m8.550781 324.28125h.609375l114.054688-8.148438c3.71875 17.773438 11.496094 34.445313 22.722656 48.714844 2.410156 2.867188 5.011719 5.558594 7.792969 8.0625l2.320312 2.210938c14.066407 12.308594 30.742188 21.265625 48.769531 26.199218v8.796876c.011719 3.984374.566407 7.949218 1.65625 11.785156-.28125.300781-.535156.621094-.761718.964844l-17.066406 34.132812c-1.320313 2.644531-1.179688 5.785156.375 8.300781 1.558593 2.515625 4.304687 4.046875 7.261718 4.046875h15.191406l-6.488281 32.425782c-.699219 3.515624.871094 7.097656 3.933594 8.960937s6.964844 1.613281 9.765625-.625l37.332031-29.832031 37.332031 29.867187c2.804688 2.207031 6.683594 2.4375 9.726563.578125s4.609375-5.414062 3.925781-8.914062l-6.441406-32.460938h15.191406c2.964844.015625 5.726563-1.507812 7.292969-4.027344 1.566406-2.515624 1.710937-5.667968.386719-8.320312l-17.066406-34.132812c-.226563-.34375-.480469-.664063-.761719-.964844 1.074219-3.835938 1.617187-7.800782 1.613281-11.785156v-8.730469c18.171875-4.914063 34.988281-13.894531 49.1875-26.257813 3.335938-3.214844 6.46875-6.636718 9.386719-10.238281 11.277343-14.265625 19.074219-30.96875 22.765625-48.777344l114.347656 8.167969h.578125c2.746094 0 5.320313-1.316406 6.925781-3.542969 1.605469-2.226562 2.039063-5.085937 1.175782-7.6875l-25.601563-76.800781c-.746094-2.234375-2.382813-4.0625-4.523437-5.050781l-107.390626-49.5625c-12.378906-36.269531-28.875-71.003907-49.160156-103.515625-5.382812-9.097656-11.675781-17.625-18.773437-25.457032-1.289063-1.339843-2.722657-2.695312-4.191407-4.085937-4.429687-4.191406-9.019531-8.535156-9.019531-12.640625.003907-9.632812-3.9375-18.851562-10.90625-25.503906-14.488281-13.898438-37.359375-13.898438-51.847656 0-6.941406 6.660156-10.855469 15.867187-10.847656 25.488281 0 4.140625-4.5625 8.472656-8.984375 12.671875-1.457032 1.382812-2.882813 2.738281-4.171875 4.085938-7.089844 7.835937-13.375 16.363281-18.757813 25.457031-17.6875 28.320312-32.566406 58.304687-44.414062 89.523437-1.707032 4.523438-3.414063 9.207032-5.011719 13.96875l-6.6875 3.082032-7.75 3.574218c-4.277344 1.976563-6.144531 7.046875-4.167969 11.328125 1.976563 4.277344 7.050782 6.144531 11.328125 4.167969l.359375-.160156c-9.507812 30.90625-13.109375 63.328125-10.617187 95.570312l-99.761719 7.167969 20.394531-61.175781 27.640625-12.796875c2.765625-1.277344 4.644532-3.9375 4.921875-6.972657.277344-3.035156-1.085937-5.988281-3.578125-7.746093-2.488281-1.761719-5.726562-2.058594-8.496094-.78125l-30.992187 14.3125v.042969c-2.144531.964843-3.792969 2.777343-4.539063 5.007812l-25.601562 76.800781c-.867188 2.605469-.4296875 5.46875 1.179688 7.695313 1.609374 2.226562 4.1875 3.539062 6.933593 3.535156zm281.601563 128c-2.5625 0-4.988282 1.148438-6.609375 3.136719-1.621094 1.984375-2.265625 4.589843-1.753907 7.101562l3.933594 19.695313-24.371094-19.5c-3.117187-2.492188-7.546874-2.492188-10.664062 0l-24.371094 19.433594 3.933594-19.628907c.511719-2.511719-.132812-5.117187-1.753906-7.101562-1.621094-1.988281-4.046875-3.136719-6.609375-3.136719h-11.792969l6.824219-13.585938c3.78125 3.191407 8.554687 4.976563 13.5 5.050782h51.203125c4.957031-.066406 9.742187-1.851563 13.53125-5.050782l6.828125 13.585938zm0-42.164062c0 10.113281-5.050782 16.5625-8.53125 16.5625h-51.203125c-3.480469 0-8.53125-6.449219-8.53125-16.5625v-4.378907c11.214843 2.445313 22.652343 3.746094 34.132812 3.875 11.476563-.125 22.914063-1.414062 34.132813-3.839843zm180.804687-164.964844 20.394531 61.175781-100.085937-7.152344c2.496094-32.230469-1.039063-64.640625-10.421875-95.574219zm-228.941406-222.457032c3.753906-3.632812 8.78125-5.648437 14.003906-5.613281 5.253907-.035156 10.316407 1.980469 14.105469 5.621094 3.605469 3.429687 5.660156 8.175781 5.691406 13.152344-12.039062 7.550781-27.289062 7.730469-39.5.460937 0-.128906 0-.25 0-.378906.011719-5.003906 2.070313-9.789062 5.699219-13.242188zm-40.175781 64.5625c4.78125-8.121093 10.351562-15.75 16.632812-22.773437 1.109375-1.160156 2.339844-2.324219 3.59375-3.515625 2.910156-2.664062 5.613282-5.550781 8.078125-8.628906 8.09375 4.207031 17.0625 6.441406 26.183594 6.519531 8.925781-.082031 17.6875-2.429687 25.460937-6.828125 2.542969 3.207031 5.339844 6.199219 8.363282 8.953125 1.261718 1.1875 2.5 2.347656 3.617187 3.515625 6.300781 7.027344 11.894531 14.65625 16.699219 22.777344 19.746094 31.589844 35.839844 65.324218 47.976562 100.546875.046876 1.671875.582032 3.289062 1.542969 4.660156 18.902344 57.71875 25.414063 120.804687-7.535156 161.679687-2.464844 3.058594-5.121094 5.960938-7.941406 8.695313-19.191407 18.59375-60.078125 29.6875-88.492188 29.6875-28.261719 0-68.933593-11.09375-88.054687-29.671875l-2.5625-2.394531c-2.191406-1.964844-4.253906-4.070313-6.167969-6.308594-40.558594-50.558594-17.605469-134.773437-.316406-180.46875 11.449219-30.148437 25.828125-59.101563 42.921875-86.445313zm0 0"/></g></svg>