<svg height="512pt" viewBox="0 -4 512.1 512" width="512pt" xmlns="http://www.w3.org/2000/svg"><path d="m460.800781 213.449219c0 113.101562-91.699219 204.800781-204.800781 204.800781-4.398438 0-8.601562-.199219-12.800781-.398438-107.800781-7-191.597657-96.402343-191.597657-204.402343s83.796876-197.398438 191.597657-204.398438c4.199219-.300781 8.402343-.402343 12.800781-.402343 113.101562 0 204.800781 91.703124 204.800781 204.800781zm0 0" fill="#d4e1f4"/><path d="m435.199219 213.449219c0-112.886719-85.960938-204.398438-192-204.398438-106.039063 0-192 91.511719-192 204.398438s85.960937 204.402343 192 204.402343c106.039062 0 192-91.515624 192-204.402343zm0 0" fill="#e3e7f2"/><path d="m332.800781 350.449219h-6.699219c-19.203124 0-37.703124 7.699219-51.300781 21.199219-6.199219 6.203124-11.199219 13.5-14.800781 21.402343h-8.101562c-11.699219-26-37.597657-42.699219-66-42.699219h-57.898438c4.101562-3.601562 7.898438-7.402343 11.5-11.5 6.601562-8.402343 6.898438-16.703124-2.101562-23.101562-7.699219-4.199219-14.898438-9.398438-21.199219-15.5-14.398438-17.101562-17.199219-39.199219-24.097657-59.699219-3.402343-10.402343-5.902343-20.699219-15.601562-27.101562-4.699219-3.199219-10.101562-5.5-14.699219-8.800781-4.800781-3.097657-8.199219-8-9.300781-13.699219v-.097657c8.300781-73.101562 55.300781-136.203124 123-165.101562 15.601562 5.699219 32.5 7.300781 48.101562 13 4.5 1.398438 8.5 3.800781 11.898438 7.101562 4.5 5 5.800781 12.097657 3.398438 18.398438-3 6.199219-8.199219 11.101562-14.597657 13.699219-9.800781 4.902343-19.5 10.402343-29.601562 14.800781-8.699219 2.5-16.199219 8-21.199219 15.398438-4.898438 8.203124-4 18.601562 2.199219 25.902343 5.699219 4.898438 13.199219 7.199219 20.699219 6.5 10.800781-.199219 21.402343-.199219 32.300781.300781 19.800781.296876 39.601562 2.5 59 6.796876 6.101562 1 11.699219 4.101562 15.800781 8.800781 3 4.402343 3.800781 9.902343 2.199219 15-3 9.699219-11.800781 12.601562-20.097657 16-12.5 5.101562-25 9.902343-37.203124 15.601562-10.699219 5.5-20.699219 12.5-29.597657 20.699219-6 5.699219-12.902343 10.300781-20.601562 13.601562-8.699219 2-17.699219 3-26.597657 3-11 1.296876-27.402343.097657-33.203124 11.796876-2.5 5.601562-3 12-1.398438 17.902343 4.101562 13 14.5 23 27.601562 26.699219 6.5 2.5 13.097657 4.101562 19.597657 6.300781 8.300781 2.597657 15.902343 6.300781 23.902343 9.699219 7.398438 4 16.398438 3.699219 23.597657-.898438 6.699219-4.703124 11.300781-12 18.902343-15.402343 9.199219-3 19.199219-2.300781 28 1.800781 13.5 3.300781 26.097657 9.699219 36.597657 18.898438 7.601562 10.101562 13.5 21.402343 17.601562 33.300781zm0 0" fill="#a4c2f7"/><path d="m460.800781 213.449219c.097657 50.402343-18.5 99-52.199219 136.5h-28.203124c-47-75.097657 13.902343-120.699219 37.703124-136.5 2.597657-1.800781 5.5-3.199219 8.398438-4.300781 3.300781-1.199219 6.699219-2.097657 10.199219-2.597657 7.902343-1.101562 16-1 23.902343.300781.199219 2.199219.199219 4.398438.199219 6.597657zm0 0" fill="#7facfa"/><path d="m439 213.449219c.101562 50.402343-18.5 99-52.199219 136.5h-6.402343c-47-75.097657 13.902343-120.699219 37.703124-136.5 2.597657-1.800781 5.5-3.199219 8.398438-4.300781 3.300781-1.199219 6.699219-2.097657 10.199219-2.597657l2.101562.300781c.199219 2.199219.199219 4.398438.199219 6.597657zm0 0" fill="#a4c2f7"/><path d="m103.5 349.949219h3.199219c-1 0-2 .101562-3.097657.199219 15.296876 17 33.296876 31.402343 53.296876 42.5h25.601562c-72.398438-39.898438-113.699219-119.597657-104.398438-201.796876v-.101562c11-98.800781 91.398438-175.398438 190.597657-181.699219-4.199219-.300781-8.5-.402343-12.699219-.402343-4.300781 0-8.601562.203124-12.800781.402343-99.199219 6.300781-179.597657 82.898438-190.699219 181.699219v.101562c-6.5 57.898438 12 115.796876 51 159.097657zm0 0" fill="#fff"/><path d="m252 452.351562c-3.601562 8-8.699219 15.199219-14.800781 21.398438-13.597657 13.601562-32 21.300781-51.300781 21.199219h-104.796876c-40.101562 0-72.5-32.5-72.5-72.5s32.5-72.5 72.5-72.5h104.796876c28.5 0 54.300781 16.699219 66 42.699219l-80.699219 8.5h-90.097657c-11.800781 0-21.300781 9.601562-21.300781 21.300781 0 11.800781 9.597657 21.300781 21.300781 21.300781h90.097657zm0 0" fill="#41767f"/><path d="m315.601562 93.648438c.398438 5.703124-2.601562 11-7.5 13.800781-10.800781 5.699219-24.101562-5.597657-31.402343-12.5-2.597657-2.097657-4.597657-4.800781-5.800781-7.898438-1.199219-4.101562-.796876-8.5 1.300781-12.300781 1.300781-2.601562 2.902343-5 4.902343-7.101562 4.398438-5.097657 11.398438-7 17.699219-4.796876 3 1.796876 5.5 4.199219 7.300781 7.199219 2.296876 3.300781 4.699219 6.597657 7 9.898438 3.398438 4 5.699219 8.699219 6.5 13.699219zm0 0" fill="#e3e7f2"/><path d="m187.699219 349.949219h-110.898438c-37.699219 0-68.300781 30.601562-68.300781 68.300781v8.5c0 37.699219 30.601562 68.300781 68.300781 68.300781h110.898438c37.699219 0 68.300781-30.601562 68.300781-68.300781v-8.5c0-37.699219-30.601562-68.300781-68.300781-68.300781zm-4.199219 93.902343h-102.398438c-11.800781 0-21.300781-9.601562-21.300781-21.300781 0-11.800781 9.597657-21.300781 21.300781-21.300781h102.398438c11.800781 0 21.300781 9.601562 21.300781 21.300781s-9.601562 21.300781-21.300781 21.300781zm0 0" fill="#e3e7f2"/><path d="m435.199219 349.949219h-110.898438c-37.699219 0-68.300781 30.601562-68.300781 68.300781v8.5c0 37.699219 30.601562 68.300781 68.300781 68.300781h110.898438c37.699219 0 68.300781-30.601562 68.300781-68.300781v-8.5c0-37.699219-30.601562-68.300781-68.300781-68.300781zm-106.699219 93.902343c-11.800781 0-21.300781-9.601562-21.300781-21.300781 0-11.800781 9.601562-21.300781 21.300781-21.300781h102.398438c11.800781 0 21.300781 9.601562 21.300781 21.300781 0 11.800781-9.597657 21.300781-21.300781 21.300781zm0 0" fill="#d4e1f4"/><path d="m409.601562 349.949219h-85.300781c-37.699219 0-68.300781 30.601562-68.300781 68.300781v8.5c0 37.699219 30.601562 68.300781 68.300781 68.300781h85.300781c37.699219 0 68.296876-30.601562 68.296876-68.300781v-8.5c0-37.699219-30.597657-68.300781-68.296876-68.300781zm21.296876 93.902343h-128c-11.796876 0-21.296876-9.601562-21.296876-21.300781 0-11.800781 9.597657-21.300781 21.296876-21.300781h128c11.800781 0 21.300781 9.601562 21.300781 21.300781.101562 11.699219-9.5 21.300781-21.300781 21.300781zm0 0" fill="#e3e7f2"/><path d="m183.5 392.648438h-102.398438c-16.5.101562-29.800781 13.402343-29.902343 29.902343 0 16.5 13.402343 29.898438 29.902343 29.898438h102.398438c16.5-.097657 29.800781-13.398438 29.898438-29.898438 0-7.902343-3.097657-15.5-8.699219-21.101562-5.699219-5.699219-13.300781-8.800781-21.199219-8.800781zm0 51.203124h-102.398438c-11.800781 0-21.300781-9.601562-21.300781-21.300781 0-11.800781 9.597657-21.300781 21.300781-21.300781h102.398438c11.800781 0 21.300781 9.601562 21.300781 21.300781s-9.601562 21.300781-21.300781 21.300781zm0 0" fill="#31595f"/><path d="m349.898438 422.550781c0 7.898438-3.199219 15.5-8.796876 21.097657l-.300781.300781c-5.5 5.5-13 8.5-20.800781 8.5h-128c-12.101562 0-23-7.199219-27.601562-18.398438-4.597657-11.199219-2-24 6.5-32.5l.300781-.300781c5.5-5.5 13-8.5 20.800781-8.5h128c16.5 0 29.800781 13.300781 29.898438 29.800781zm0 0" fill="#d4e1f4"/><g fill="#fff"><path d="m8.5 422.550781v4.300781c0 37.699219 30.601562 68.296876 68.300781 68.296876h4.300781c-40.101562-.097657-72.5-32.597657-72.601562-72.597657zm0 0"/><path d="m81.101562 349.949219h-4.300781c-37.699219 0-68.300781 30.601562-68.300781 68.300781v4.300781c0-40.101562 32.5-72.601562 72.601562-72.601562zm0 0"/><path d="m196.800781 443.851562c1.199219 1.097657 2.398438 2.199219 3.800781 3.097657 1-.699219 2-1.5 2.898438-2.398438zm0 0"/><path d="m85.800781 443.851562h-4.800781c-11.800781 0-21.300781-9.601562-21.300781-21.300781 0-11.800781 9.601562-21.300781 21.300781-21.300781h4.800781c5.5-5.5 13-8.5 20.800781-8.5h-25.5c-16.5.101562-29.800781 13.398438-29.902343 29.898438 0 16.5 13.402343 29.902343 29.902343 29.902343h25.597657c-7.800781-.199219-15.300781-3.199219-20.898438-8.699219zm0 0"/><path d="m217.601562 452.351562c-1.402343 0-2.902343-.203124-4.300781-.402343-1.402343.199219-2.800781.402343-4.300781.402343zm0 0"/><path d="m200.601562 446.949219c3.796876 2.601562 8.199219 4.402343 12.699219 5 3.097657-.398438 6-1.398438 8.800781-2.699219zm0 0"/><path d="m197.898438 400.351562c-.296876.296876-.699219.597657-1.097657.898438l2.5-.300781zm0 0"/><path d="m187.699219 422.550781c0-7.902343 3.199219-15.5 8.800781-21.101562l.300781-.300781h-25.601562l-.300781.300781c-5.699219 5.601562-8.796876 13.300781-8.796876 21.300781s3.296876 15.601562 9 21.199219h25.597657c-5.699219-5.699219-9-13.398438-9-21.398438zm0 0"/><path d="m42.699219 213.449219c.199219-76.800781 41.601562-147.597657 108.300781-185.597657 32.101562-18 68.199219-27.5 105-27.703124v17.101562c-33.800781.199219-67 9-96.5 25.5-61.5 34.898438-99.5 100-99.800781 170.699219zm0 0"/></g><path d="m371.199219 99.449219c3.300781 3.199219 8.699219 3.199219 12-.097657 3.300781-3.300781 3.300781-8.601562.101562-12-7.300781-7.300781-15.199219-14-23.699219-20-2.5-2-5.902343-2.402343-8.800781-1.101562-2.902343 1.300781-4.902343 4.101562-5.101562 7.300781s1.402343 6.199219 4.101562 7.800781c7.699219 5.398438 14.800781 11.398438 21.398438 18.097657zm0 0" fill="#428dff"/><path d="m413.699219 175.949219c.902343 3.800781 4.300781 6.601562 8.300781 6.601562.699219 0 1.300781-.101562 2-.199219 4.601562-1.101562 7.398438-5.703124 6.300781-10.203124-5-21.296876-14-41.5-26.5-59.597657-1.699219-2.601562-4.699219-4-7.699219-3.800781s-5.800781 2.101562-7.101562 4.898438c-1.300781 2.800781-1 6.101562.800781 8.601562 11.199219 16.199219 19.300781 34.398438 23.898438 53.699219zm0 0" fill="#428dff"/><path d="m430.898438 341.449219h-4.398438c27.800781-36.898438 42.800781-81.800781 42.800781-128 0-2.398438 0-4.898438-.199219-6.800781-1.902343-59.097657-28.203124-114.796876-72.800781-153.699219-10-8.800781-20.800781-16.597657-32.300781-23.300781-17.300781-10.296876-35.898438-18-55.398438-22.898438-17.203124-4.398438-35-6.6992188-52.703124-6.6992188-28.5.3007808-56.597657 5.9999998-82.898438 16.8984378-.800781.199219-1.699219.601562-2.398438 1.101562-6.703124 2.898438-13.300781 6.097657-19.601562 9.699219-32 18.101562-58.800781 44.199219-77.699219 75.699219l-4.601562 7.601562c-1.097657 2.097657-1.300781 4.5-.597657 6.699219.699219 2.199219 2.296876 4 4.296876 5.101562 4.101562 2.097657 9.101562.5 11.300781-3.601562l4.300781-7c17.398438-29 42-53 71.5-69.699219 5.398438-3.101562 11-5.902343 16.699219-8.402343 7.199219 2.300781 14.5 4 21.601562 5.601562 7.699219 1.5 15.398438 3.5 22.898438 6 3.199219.898438 6.101562 2.5 8.5 4.601562 2.199219 2.398438 2.800781 5.898438 1.699219 9-2.296876 4.097657-6 7.296876-10.398438 8.898438-3.5 1.699219-7 3.5-10.601562 5.199219-6.097657 3.101562-12.5 6.300781-18.796876 8.902343l-1 .398438c-9.902343 3.101562-18.5 9.5-24.203124 18.199219-6.898438 11.300781-5.398438 25.800781 3.601562 35.5 7.300781 6.5 17 9.699219 26.800781 8.800781 12.597657-.199219 22.398438-.101562 31.898438.300781 19.300781.199219 38.402343 2.398438 57.300781 6.398438 4.101562.601562 7.898438 2.5 11 5.402343 1.398438 2.097657 1.699219 4.597657 1 7-1.5 4.699219-5.898438 6.597657-13.5 9.597657l-10 3.902343c-9.601562 3.796876-19.601562 7.699219-29.199219 12.097657-11.402343 5.699219-22 12.902343-31.601562 21.300781-5.199219 4.898438-11.199219 8.898438-17.699219 11.699219-5 1.402343-10.101562 2-15.199219 1.902343-3.199219.097657-6.5.199219-9.601562.597657-1.800781.199219-3.699219.300781-5.699219.5-11.398438.800781-27.101562 1.902343-34.101562 15.601562-3.5 7.300781-4.199219 15.597657-2 23.398438 3.703124 14.402343 14.800781 25.101562 33 31.902343 4.203124 1.597657 8.5 2.796876 12.800781 4.097657 2.402343.699219 4.800781 1.402343 7.199219 2.199219 5.902343 1.902343 11.5 4.300781 17.402343 6.800781l5.800781 2.402343c10.097657 5.097657 22.097657 4.5 31.597657-1.601562 3.101562-2.199219 6-4.699219 8.601562-7.398438 2.597657-2.800781 5.597657-5.203124 8.898438-7 7.402343-1.902343 15.199219-1.203124 22 2.097657 12.101562 2.800781 23.5 8.402343 33.101562 16.300781 5.5 6.800781 9.800781 14.5 12.699219 22.699219.601562 1.300781 1.101562 2.601562 1.699219 3.800781-20.597657.601562-40.097657 9.101562-54.699219 23.601562-5 5.097657-9.398438 10.699219-13 16.898438-14.398438-25.101562-41.101562-40.601562-70-40.699219h-38c3.800781-5 5.5-11.300781 4.800781-17.601562-1.101562-6.398438-4.800781-12-10.300781-15.5-2.5-1.800781-5.101562-3.300781-7.601562-4.898438-4.5-2.402343-8.597657-5.5-12.097657-9.199219-8.800781-12.101562-14.800781-25.902343-17.601562-40.601562-1.5-5.5-3-10.898438-4.800781-16.300781l-1-3.097657c-2.398438-11.402343-8.796876-21.5-18-28.5-2.398438-1.601562-4.796876-2.902343-7.296876-4.300781-2.5-1.300781-4.902343-2.699219-7.203124-4.300781-2.5-1.601562-4.5-4-5.5-6.800781.5-3.097657 1.101562-6.300781 1.5-9.398438.5-4.601562-2.5-8.800781-7-9.800781-2.199219-.5-4.597657 0-6.5 1.300781-1.898438 1.300781-3.097657 3.398438-3.398438 5.699219-.398438 3.199219-1 6.398438-1.5 9.601562-.101562.296876-.101562.597657-.101562.898438-.398438 2.398438-.597657 4.699219-.699219 7.101562l-.898438 17.796876c0 46.203124 15 91.101562 42.800781 128h-4.402343c-44.898438.300781-81.199219 36.601562-81.199219 81.402343s36.300781 81.097657 81.101562 81.097657h104.796876c21.5.101562 42.203124-8.5 57.300781-23.699219 5-5.097657 9.402343-10.699219 13-16.898438 14.402343 25.097657 41.101562 40.597657 70 40.699219h104.800781c44.800781 0 81.101562-36.300781 81.101562-81.101562 0-44.796876-36.402343-81.199219-81.203124-81.199219zm-45.597657 0c-26.601562-45.800781-14.101562-86.5 37.5-120.898438 2.097657-1.402343 4.300781-2.5 6.597657-3.300781 7.300781-2.398438 15-3.300781 22.703124-2.601562-.300781 46.601562-17.203124 91.601562-47.601562 126.800781zm-64.101562-38.5c-11.5-10-25.199219-17-40-20.5-10.800781-4.699219-22.898438-5.199219-34-1.398438-5.199219 2.597657-9.898438 6-13.898438 10.199219-2 2-4.101562 3.898438-6.402343 5.601562-4.699219 2.898438-10.699219 2.898438-15.398438 0l-5.601562-2.402343c-6-2.597657-12.199219-5.199219-18.898438-7.398438-2.5-.800781-5.101562-1.601562-7.601562-2.300781-3.898438-1.101562-7.796876-2.300781-11.597657-3.699219-13-4.902343-20.101562-11.300781-22.402343-20.199219-1.097657-3.800781-.898438-7.800781.703124-11.402343 2.398438-4.800781 10.199219-5.699219 20.097657-6.300781 2.300781-.199219 4.402343-.296876 6.5-.5 2.699219-.296876 5.5-.398438 8.402343-.5 6.796876.101562 13.597657-.898438 20.097657-2.796876 8.601562-3.402343 16.5-8.402343 23.199219-14.703124 8.402343-7.5 17.703124-13.898438 27.703124-18.898438 9.199219-4.300781 18.898438-8 28.296876-11.699219l10-3.902343c10.703124-2.597657 19.5-10.199219 23.5-20.398438 2.402343-7.601562 1.101562-15.800781-3.5-22.300781-5.296876-6.199219-12.5-10.398438-20.5-11.800781-19.898438-4.296876-40.296876-6.699219-60.699219-6.898438-9.800781-.398438-19.898438-.5-32.898438-.300781-5.199219.699219-10.402343-.699219-14.5-3.898438-3.402343-4.300781-3.699219-10.199219-.902343-14.800781 3.101562-5.300781 7.902343-7.601562 16.101562-11l1-.398438c6.800781-2.902343 13.398438-6.203124 19.800781-9.402343 3.398438-1.699219 6.800781-3.398438 10.199219-5.097657 8.300781-3.402343 15-9.800781 18.800781-17.902343 3.597657-9.199219 1.597657-19.699219-5.101562-27-4.300781-4.199219-9.5-7.300781-15.300781-9.097657-7-2.300781-14-4.203124-21.199219-5.703124 16.601562-4.398438 33.699219-6.699219 50.902343-6.898438 16.398438 0 32.699219 2 48.5 6.101562 17.898438 4.5 35.097657 11.597657 51 21.097657 10.597657 6.101562 20.5 13.300781 29.597657 21.402343 38.402343 33.597657 62.199219 80.796876 66.402343 131.699219-9.5-.699219-19 .597657-27.902343 3.699219-3.597657 1.300781-7.097657 3-10.199219 5.199219-55.699219 37.101562-72.101562 84.699219-47.398438 135.101562h-24.703124c0-1.199219-.199219-2.5-.699219-3.601562-1-2.097657-2-4.398438-3-6.800781-3.898438-10.398438-9.398438-19.898438-16.5-28.199219zm13.601562 104.199219c.097657.101562.097657.101562.199219.101562 4.101562 4 6.398438 9.5 6.398438 15.199219s-2.296876 11.199219-6.398438 15.199219c-.101562.101562-.101562.101562-.199219.101562-4 3.800781-9.199219 6-14.800781 6h-128c-5.5 0-10.800781-2.101562-14.800781-6-.097657-.101562-.097657-.101562-.199219-.101562-4.101562-4-6.398438-9.5-6.398438-15.199219s2.296876-11.199219 6.398438-15.199219c.101562-.101562.101562-.101562.199219-.101562 4-3.796876 9.199219-6 14.800781-6h128c5.5 0 10.800781 2.203124 14.800781 6zm21.199219 2.601562h83.398438c7.101562 0 12.800781 5.699219 12.800781 12.800781 0 7.097657-5.699219 12.800781-12.800781 12.800781h-83.398438c3.199219-8.300781 3.199219-17.402343 0-25.601562zm-200 25.601562h-74.898438c-7.101562 0-12.800781-5.703124-12.800781-12.800781 0-7.101562 5.699219-12.800781 12.800781-12.800781h74.898438c-3.199219 8.199219-3.199219 17.300781 0 25.601562zm-96.300781-221.902343v-.5c2 1.199219 4 2.402343 5.902343 3.5 2.097657 1.101562 4.097657 2.300781 6.097657 3.601562 5.902343 5 9.800781 11.898438 11.199219 19.5l1.101562 3.300781c1.699219 5.097657 3.101562 10.296876 4.601562 15.5 3.398438 17 10.597657 33.097657 21 47 4.699219 5.199219 10.199219 9.5 16.296876 12.796876 2.203124 1.300781 4.402343 2.703124 6.601562 4.203124 1.5.898438 2.699219 2.296876 3.300781 4-.101562 2.597657-1.199219 5-2.902343 6.796876-2 2.402343-4.199219 4.703124-6.597657 6.703124-.5.5-1.101562 1-1.601562 1.5h-17.097657c-30.902343-35.5-47.902343-80.902343-47.902343-127.902343zm126.199219 273.101562h-104.796876c-35.300781 0-64-28.699219-64-64s28.699219-64 64-64h104.796876c20.101562.097657 38.902343 9.5 51 25.597657h-44.898438c-8.699219 0-17.101562 3-23.800781 8.5h-87.097657c-16.5 0-29.902343 13.402343-29.902343 29.902343s13.402343 29.898438 29.902343 29.898438h87.097657c6.699219 5.5 15.199219 8.5 23.800781 8.5h44.800781c-1.699219 2.402343-3.699219 4.699219-5.699219 6.800781-12 12-28.300781 18.800781-45.203124 18.800781zm290.300781-18.800781c-12 12-28.199219 18.800781-45.199219 18.800781h-104.898438c-20.101562-.101562-38.902343-9.5-51-25.601562h44.898438c8.699219 0 17.101562-3 23.800781-8.5h95.597657c16.5 0 29.902343-13.398438 29.902343-29.898438s-13.402343-29.902343-29.902343-29.902343h-95.597657c-6.699219-5.5-15.199219-8.5-23.800781-8.5h-44.800781c1.699219-2.398438 3.699219-4.699219 5.699219-6.796876 12-12 28.300781-18.703124 45.203124-18.800781h104.796876c25.902343 0 49.203124 15.597657 59.101562 39.5 9.898438 23.898438 4.398438 51.398438-13.800781 69.699219zm0 0" fill="#428dff"/><path d="m316.101562 75.148438-7-9.898438c-2.601562-4.199219-6.203124-7.601562-10.5-9.898438-9.601562-3.902343-20.601562-1.300781-27.5 6.5-2.703124 2.699219-4.902343 5.898438-6.601562 9.398438-3 5.800781-3.601562 12.601562-1.699219 18.898438 1.699219 4.402343 4.5 8.203124 8.097657 11.300781 5.300781 4.902343 17.601562 16.300781 30.800781 16.300781 3.601562 0 7.199219-.898438 10.402343-2.601562 8-4.296876 12.699219-13 11.898438-22-.898438-6.796876-3.601562-12.898438-7.898438-18zm-12 24.800781c-2.300781 1.199219-8.101562 1.402343-21.601562-11.199219-1.5-1.199219-2.699219-2.699219-3.601562-4.398438-.398438-2-.097657-4 .902343-5.800781.898438-1.800781 2-3.402343 3.398438-4.800781 2.601562-2.601562 6.101562-4 7.902343-3.101562 1.597657 1.203124 3 2.800781 4 4.5l7 9.902343c2.296876 2.699219 4 5.898438 4.898438 9.398438.199219 2.199219-.898438 4.402343-2.898438 5.5zm0 0" fill="#428dff"/><path d="m54.601562 143.648438c-.800781 2.203124-.703124 4.601562.199219 6.703124l.898438 1.398438c.402343.5.800781.898438 1.300781 1.199219.398438.402343.898438.699219 1.300781.902343.5.296876 1 .5 1.597657.699219 2.101562.597657 4.402343.398438 6.402343-.601562 1-.5 1.898438-1.199219 2.597657-2 2.300781-2.398438 2.800781-6 1.402343-9-.5-1-1.199219-1.898438-2-2.699219s-1.800781-1.398438-2.800781-1.800781c-2.101562-.800781-4.398438-.699219-6.5.199219-2 1.101562-3.601562 2.902343-4.398438 5zm0 0" fill="#428dff"/></svg>